<svg viewBox="0 0 16 16" ><path fill="#1B84BC" d="M16.114,14.613c0,0.765-0.621,1.387-1.387,1.387H1.387C0.621,16,0,15.378,0,14.613V1.387 C0,0.62,0.621,0,1.387,0h13.341c0.766,0,1.387,0.62,1.387,1.387V14.613z M4.77,5.985H2.215v7.689H4.77V5.985z M5.164,3.589 c-0.018-0.825-0.605-1.452-1.56-1.452c-0.954,0-1.579,0.627-1.579,1.452c0,0.804,0.605,1.451,1.541,1.451h0.02 C4.559,5.04,5.164,4.394,5.164,3.589z M13.932,9.274c0-2.369-1.263-3.469-2.949-3.469c-1.36,0-1.967,0.581-2.309,1.107V5.985H6.242 c0.033,0.723,0,7.707,0,7.707h2.433V9.389c0-0.232,0.018-0.461,0.085-0.626c0.187-0.461,0.607-0.937,1.314-0.937 c0.927,0,1.297,0.708,1.297,1.743v4.123h2.561V9.274z M8.463,7.157V7.132C8.458,7.139,8.452,7.149,8.447,7.157H8.463z"/></svg>
